<svg width="254" height="42" viewBox="0 0 254 42" fill="none" xmlns="http://www.w3.org/2000/svg">
<path d="M62.61 26.0353C58.9131 26.0353 56.7968 24.0529 56.6093 21.3472L58.4577 21.2133C58.672 23.0885 60.0383 24.3476 62.61 24.3476C64.8603 24.3476 66.1729 23.5975 66.1729 22.0438C66.1729 20.7579 65.6104 20.1417 62.1814 19.5524C58.1362 18.8291 57.0111 17.6504 57.0111 15.4537C57.0111 12.9355 58.9399 11.1942 62.1814 11.1942C65.5032 11.1942 67.2981 13.2302 67.7267 15.6412L65.8783 15.8019C65.5836 14.1678 64.3513 12.8819 62.1546 12.8819C60.0115 12.8819 58.8595 13.8731 58.8595 15.3733C58.8595 16.9271 59.7436 17.5164 62.5832 17.9986C66.8159 18.6951 68.0482 19.8203 68.0482 22.017C68.0482 24.5887 65.7979 26.0353 62.61 26.0353ZM76.5882 26.0353C72.7306 26.0353 70.2392 23.1421 70.2392 18.6148C70.2392 14.0874 72.7306 11.1942 76.5882 11.1942C80.4191 11.1942 82.9105 14.0874 82.9105 18.6148C82.9105 23.1421 80.4191 26.0353 76.5882 26.0353ZM76.5882 24.3476C79.3743 24.3476 81.062 22.1777 81.062 18.6148C81.062 15.0518 79.3743 12.8819 76.5882 12.8819C73.7754 12.8819 72.0877 15.0518 72.0877 18.6148C72.0877 22.1777 73.7754 24.3476 76.5882 24.3476ZM88.871 25.7139C87.2637 25.7139 86.2725 24.937 86.2725 23.2225V6.69363H88.0406V23.0885C88.0406 23.7851 88.3888 24.1333 89.1121 24.1333H90.2373V25.7139H88.871ZM97.5526 26.0353C94.7129 26.0353 92.8913 24.0262 92.8913 20.6507V11.5157H94.6593V20.115C94.6593 23.035 95.7845 24.4548 98.008 24.4548C100.446 24.4548 101.973 22.7403 101.973 19.981V11.5157H103.741V25.7139H102.08L102.053 23.1421C101.357 24.9906 99.7493 26.0353 97.5526 26.0353ZM112.341 25.7139C110.037 25.7139 108.938 24.6691 108.938 22.392V13.0962H106.715V11.5157H108.938V8.19382H110.706V11.5157H114.377V13.0962H110.706V22.3384C110.706 23.6779 111.296 24.1333 112.501 24.1333H114.377V25.7139H112.341ZM117.325 9.15823V6.774H119.2V9.15823H117.325ZM117.378 25.7139V11.5157H119.146V25.7139H117.378ZM128.623 26.0353C124.765 26.0353 122.274 23.1421 122.274 18.6148C122.274 14.0874 124.765 11.1942 128.623 11.1942C132.454 11.1942 134.945 14.0874 134.945 18.6148C134.945 23.1421 132.454 26.0353 128.623 26.0353ZM128.623 24.3476C131.409 24.3476 133.097 22.1777 133.097 18.6148C133.097 15.0518 131.409 12.8819 128.623 12.8819C125.81 12.8819 124.122 15.0518 124.122 18.6148C124.122 22.1777 125.81 24.3476 128.623 24.3476ZM138.124 25.7139V11.5157H139.731L139.785 14.2481C140.481 12.1854 142.249 11.1942 144.312 11.1942C147.554 11.1942 149.081 13.5784 149.081 16.5788V25.7139H147.313V17.2217C147.313 14.4625 146.348 12.7747 143.937 12.7747C141.499 12.7747 139.892 14.4625 139.892 17.2217V25.7139H138.124ZM158.203 26.0353C154.506 26.0353 152.39 24.0529 152.202 21.3472L154.051 21.2133C154.265 23.0885 155.631 24.3476 158.203 24.3476C160.453 24.3476 161.766 23.5975 161.766 22.0438C161.766 20.7579 161.203 20.1417 157.774 19.5524C153.729 18.8291 152.604 17.6504 152.604 15.4537C152.604 12.9355 154.533 11.1942 157.774 11.1942C161.096 11.1942 162.891 13.2302 163.32 15.6412L161.471 15.8019C161.177 14.1678 159.944 12.8819 157.748 12.8819C155.604 12.8819 154.453 13.8731 154.453 15.3733C154.453 16.9271 155.337 17.5164 158.176 17.9986C162.409 18.6951 163.641 19.8203 163.641 22.017C163.641 24.5887 161.391 26.0353 158.203 26.0353Z" fill="#171C1A"/>
<path d="M21.4131 20.1016L4.51416 30.9521" stroke="#171C1A"/>
<path d="M21.4131 20.1016L38.3447 30.75" stroke="#171C1A"/>
<path d="M21.4131 20.1016V2.39941" stroke="#171C1A"/>
<path d="M4.13265 31.0323L21.4127 1.69895L38.6928 31.0323H4.13265Z" stroke="#171C1A"/>
<path d="M10.7715 20.1357L32.0875 20.1357" stroke="#171C1A"/>
</svg>
