<svg width="102" height="34" viewBox="0 0 102 34" fill="none" xmlns="http://www.w3.org/2000/svg">
<path fill-rule="evenodd" clip-rule="evenodd" d="M0.253906 32.9388C0.269696 32.9342 0.28541 32.9294 0.301041 32.9243L0.376281 32.8997C0.39191 32.8946 0.407455 32.8893 0.422908 32.8837L0.498148 32.8564L0.519616 32.8484L0.542889 32.8393L0.618128 32.8093C0.632578 32.8035 0.646936 32.7975 0.661199 32.7913L0.73644 32.7585C0.75031 32.7524 0.764088 32.7462 0.777768 32.7397L0.853008 32.7041C0.866289 32.6979 0.879475 32.6914 0.892566 32.6847L0.967806 32.6464C0.98044 32.64 0.992982 32.6334 1.00543 32.6266L1.08067 32.5856C1.09274 32.579 1.10472 32.5723 1.11661 32.5654L1.19185 32.5216L1.20538 32.5137L1.22602 32.5011L1.30126 32.4547C1.31214 32.448 1.32293 32.4411 1.33363 32.4341L1.40887 32.3849C1.41926 32.3782 1.42956 32.3713 1.43977 32.3642L1.51501 32.3123C1.52479 32.3056 1.53449 32.2987 1.54411 32.2918L1.61935 32.2372C1.62863 32.2305 1.63784 32.2236 1.64697 32.2167L1.72221 32.1595C1.731 32.1528 1.73973 32.146 1.74837 32.1391L1.82361 32.0792L1.83472 32.0703L1.84826 32.0592L1.9235 31.9966C1.93136 31.9901 1.93916 31.9834 1.94688 31.9768L2.02212 31.9116L2.04422 31.892L2.11945 31.8242L2.14024 31.8051L2.21548 31.7347L2.23523 31.7158L2.31047 31.6428L2.32904 31.6244L2.40428 31.5488L2.42185 31.5308L2.49709 31.4526L2.51369 31.4351L2.58893 31.3543L2.60461 31.3372L2.67985 31.2538L2.69467 31.2372L2.76991 31.1513L2.78391 31.1351L2.85915 31.0467L2.87242 31.0309L2.94766 30.94L2.96017 30.9247L3.03541 30.8314L3.04727 30.8164L3.12251 30.7206L3.13371 30.7062L3.20895 30.6079L3.21961 30.5938L3.29485 30.4931L3.3049 30.4795L3.38014 30.3764L3.38967 30.3632L3.46491 30.2577L3.47397 30.2448L3.54921 30.1369L3.55779 30.1245L3.63303 30.0143L3.64118 30.0022L3.71648 29.8897L3.79944 29.7631L3.88203 29.6347L3.96424 29.5043L4.04612 29.372L4.12766 29.2378L4.20892 29.1017L4.28988 28.9638L4.37056 28.8241L4.45098 28.6825L4.53118 28.5391L4.61112 28.3939L4.69087 28.2469L4.77042 28.0981L4.84974 27.9476L4.9289 27.7954L5.00787 27.6415L5.08669 27.4859L5.16534 27.3287L5.24386 27.1697L5.32221 27.0092L5.40044 26.8471L5.47852 26.6834L5.48126 26.6776L5.5565 26.5182L5.55911 26.5126L5.63435 26.3514L5.63686 26.346L5.7121 26.1831L5.7145 26.1779L5.78974 26.0134L5.79203 26.0084L5.86727 25.8422L5.86947 25.8373L5.94471 25.6696L5.94681 25.6649L6.02205 25.4956L6.02407 25.491L6.09931 25.3202L6.10124 25.3158L6.17648 25.1435L6.17833 25.1393L6.25357 24.9655L6.25534 24.9614L6.33057 24.7862L6.33226 24.7823L6.4075 24.6057L6.40913 24.6018L6.48437 24.4239L6.48592 24.4202L6.56116 24.2409L6.56264 24.2374L6.63788 24.0568L6.6393 24.0533L6.71454 23.8715L6.71589 23.8682L6.79113 23.6852L6.86768 23.4977L6.86891 23.4947L6.94533 23.3063L7.02057 23.1198L7.09802 22.9266L7.17326 22.7379L7.24952 22.5456L7.32666 22.3501L7.4019 22.1585L8.0097 20.5804L10.4941 13.9245L11.014 12.5736L11.3863 11.6316L11.4605 11.4471L11.5334 11.2667L11.5346 11.2637L11.6074 11.0847L11.6086 11.0816L11.6813 10.904L11.6826 10.9008L11.7552 10.7247L11.7565 10.7214L11.829 10.5467L11.8304 10.5433L11.9027 10.3701L11.9764 10.195L11.9779 10.1913L12.05 10.0214L12.0516 10.0175L12.1235 9.84922L12.1252 9.84521L12.1969 9.67862L12.1987 9.67448L12.2703 9.50964L12.2722 9.50533L12.3436 9.34225L12.3455 9.33782L12.4168 9.17655L12.4188 9.17193L12.4899 9.01253L12.492 9.00776L12.5629 8.85025L12.5651 8.84532L12.6358 8.68974L12.6381 8.68463L12.7086 8.53102L12.711 8.52575L12.7813 8.37416L12.7838 8.36869L12.8539 8.21916L12.8565 8.21353L12.9263 8.06608L12.9291 8.06025L12.9987 7.91494L13.0016 7.90892L13.0709 7.76579L13.0739 7.75956L13.143 7.61866L13.1461 7.61223L13.2149 7.47357L13.2182 7.46693L13.2867 7.33056L13.2901 7.32371L13.3583 7.1897L13.3619 7.1826L13.4297 7.05097L13.4335 7.04366L13.501 6.91444L13.505 6.90689L13.5721 6.78015L13.5762 6.77233L13.6429 6.64811L13.6473 6.64004L13.7182 6.51004L13.7864 6.38674L13.8568 6.26136L13.9269 6.13865L13.9967 6.01838L14.0663 5.90031L14.1356 5.78488L14.2046 5.67191L14.2731 5.56178L14.3416 5.45381L14.4095 5.34875L14.477 5.2464L14.5443 5.14641L14.611 5.04938L14.6772 4.9551L14.743 4.86348L14.8083 4.77473L14.873 4.68883L14.9371 4.6057L15.0006 4.5256L15.0634 4.44828L15.1256 4.37384L15.1869 4.3025L15.2475 4.23405L15.3072 4.16857L15.366 4.10607L15.4238 4.04664L15.4807 3.99011L15.5364 3.93661L15.591 3.88613L15.6444 3.83863L15.6965 3.79403L15.7472 3.75245L15.7966 3.71371L15.8445 3.67785L15.8908 3.6448L15.9356 3.61447L15.9787 3.58681L16.02 3.56178L16.0597 3.53919L16.0975 3.51901L16.1336 3.50109L16.1678 3.48531L16.2003 3.47156L16.231 3.45966L16.26 3.44949L16.2873 3.4409L16.3131 3.43374L16.3376 3.42786L16.3607 3.42315L16.3828 3.41947L16.404 3.41672L16.4245 3.41483L16.4445 3.41371L16.4642 3.41334L16.484 3.41371L16.504 3.41481L16.5245 3.4167L16.5457 3.41944L16.5677 3.42311L16.5909 3.42781L16.6153 3.43368L16.6411 3.44082L16.6685 3.44941L16.6974 3.45956L16.7281 3.47145L16.7605 3.48518L16.7948 3.50093L16.8308 3.51884L16.8687 3.53902L16.9082 3.56154L16.9496 3.5866L16.9927 3.61422L17.0374 3.64451L17.0838 3.67755L17.1316 3.71339L17.1809 3.75207L17.2317 3.7937L17.2838 3.83821L17.3372 3.88571L17.3917 3.93613L17.4475 3.98966L17.5043 4.04609L17.5621 4.10555L17.6209 4.168L17.6806 4.23344L17.7412 4.30188L17.8026 4.37332L17.8647 4.44758L17.9274 4.5248L17.991 4.60502L18.0551 4.68814L18.1198 4.77393L18.1851 4.86272L18.2508 4.95426L18.3171 5.04854L18.3838 5.14555L18.4511 5.24549L18.5185 5.3478L18.5865 5.45295L18.6548 5.56071L18.7235 5.67099L18.7925 5.78395L18.8617 5.8993L18.9313 6.01724L19.0011 6.13755L19.0712 6.26029L19.1416 6.38562L19.2099 6.50891L19.2807 6.63887L19.2851 6.64696L19.3518 6.77118L19.356 6.77896L19.4231 6.9057L19.427 6.91327L19.4945 7.04242L19.4983 7.04977L19.5661 7.18139L19.5697 7.18844L19.6379 7.32247L19.6414 7.32934L19.7098 7.46565L19.7131 7.47231L19.7819 7.61093L19.7851 7.61736L19.8541 7.75827L19.8571 7.76448L19.9264 7.90759L19.9293 7.91363L19.9989 8.05891L20.0017 8.06473L20.0715 8.21218L20.0741 8.2178L20.1442 8.36732L20.1467 8.37279L20.217 8.52437L20.2194 8.52963L20.2899 8.68321L20.2922 8.68834L20.3629 8.8439L20.3651 8.84881L20.436 9.00634L20.4381 9.0111L20.5092 9.17047L20.5112 9.17511L20.5825 9.33635L20.5844 9.34078L20.6559 9.50387L20.6577 9.50816L20.7293 9.67296L20.7311 9.67715L20.8028 9.84371L20.8045 9.84769L20.8764 10.016L20.8781 10.0198L20.9516 10.1935L21.0238 10.365L21.0253 10.3686L21.0976 10.5417L21.099 10.5451L21.1715 10.7198L21.1729 10.7231L21.2454 10.8992L21.3206 11.0831L21.3934 11.2621L21.4675 11.4454L21.4687 11.4483L21.5427 11.6327L21.6159 11.8157L21.9876 12.7608L22.4339 13.9228L24.9151 20.5702L25.5252 22.1545L25.6022 22.3508L25.6785 22.5439L25.83 22.9249L25.9063 23.1153L25.9838 23.3076L26.0591 23.493L26.0603 23.4961L26.1355 23.6803L26.1368 23.6835L26.2134 23.8699L26.2887 24.0517L26.2901 24.0551L26.3653 24.2357L26.3668 24.2393L26.442 24.4186L26.4436 24.4223L26.5188 24.6002L26.5205 24.604L26.5957 24.7807L26.5974 24.7846L26.6726 24.9598L26.6744 24.9639L26.7496 25.1377L26.7515 25.142L26.8267 25.3143L26.8287 25.3187L26.9039 25.4895L26.9059 25.4941L26.9812 25.6634L26.9833 25.6681L27.0585 25.8358L27.0607 25.8407L27.1359 26.0069L27.1382 26.0119L27.2135 26.1764L27.2159 26.1817L27.2911 26.3445L27.2936 26.3499L27.3689 26.5111L27.3715 26.5167L27.4467 26.6762L27.5247 26.8397L27.6028 27.0017L27.681 27.162L27.7593 27.3207L27.8379 27.4778L27.9165 27.6331L27.9201 27.6401L27.9953 27.7868L27.9991 27.7941L28.0743 27.9389L28.0782 27.9463L28.1535 28.0891L28.1576 28.0968L28.2328 28.2376L28.2371 28.2456L28.3123 28.3843L28.3168 28.3926L28.3921 28.5293L28.472 28.6724L28.5522 28.8138L28.6326 28.9532L28.7133 29.0909L28.7943 29.2266L28.8755 29.3605L28.9571 29.4925L29.0389 29.6225L29.1211 29.7507L29.2037 29.8769L29.2867 30.0011L29.2949 30.0132L29.3701 30.1234L29.3787 30.1359L29.4539 30.2438L29.463 30.2566L29.5382 30.3621L29.5478 30.3754L29.623 30.4785L29.6331 30.4921L29.7083 30.5928L29.7189 30.6068L29.7941 30.7051L29.8054 30.7197L29.8806 30.8155L29.8925 30.8304L29.9677 30.9238L29.9802 30.9391L30.0555 31.03L30.0688 31.0459L30.144 31.1343L30.1579 31.1504L30.2332 31.2363L30.248 31.2529L30.3232 31.3363L30.3389 31.3534L30.4142 31.4342L30.4308 31.4518L30.506 31.53L30.5235 31.5479L30.5988 31.6236L30.6174 31.642L30.6926 31.715L30.7123 31.7339L30.7876 31.8043L30.8083 31.8234L30.8836 31.8913L30.9057 31.9108L30.9809 31.9761C30.9886 31.9827 30.9964 31.9893 31.0042 31.9958L31.0795 32.0584L31.0916 32.0684L31.1042 32.0785L31.1794 32.1384C31.1881 32.1453 31.1968 32.1521 31.2056 32.1588L31.2808 32.216L31.3014 32.2315L31.3084 32.2366L31.3837 32.2911C31.3933 32.2981 31.4029 32.3049 31.4127 32.3117L31.4879 32.3636L31.5041 32.3746L31.5187 32.3843L31.594 32.4335L31.6134 32.4459L31.6265 32.4541L31.7017 32.5006C31.713 32.5076 31.7244 32.5144 31.7359 32.5211L31.8111 32.5648C31.8174 32.5685 31.8238 32.5721 31.8301 32.5757C31.8357 32.5789 31.8413 32.582 31.8469 32.585L31.9222 32.6261L31.9372 32.6341L31.9599 32.646L32.0352 32.6843C32.0482 32.6909 32.0614 32.6974 32.0746 32.7037L32.1499 32.7392L32.1657 32.7466L32.1911 32.758L32.2664 32.7908C32.2806 32.797 32.295 32.803 32.3095 32.8088L32.3847 32.8389C32.3996 32.8448 32.4145 32.8505 32.4295 32.856L32.5048 32.8833C32.5202 32.8889 32.5357 32.8943 32.5513 32.8994L32.6265 32.9239C32.6425 32.9291 32.6585 32.9341 32.6746 32.9387L32.7499 32.9605C32.7664 32.9653 32.7829 32.9698 32.7996 32.974L32.8748 32.993C32.8918 32.9973 32.9088 33.0013 32.9259 33.005L33.0011 33.0212L33.0228 33.0258C33.033 33.0278 33.0432 33.0297 33.0534 33.0316L33.1286 33.045C33.1382 33.0467 33.1477 33.0484 33.1573 33.0499C33.1655 33.0512 33.1738 33.0524 33.182 33.0536L33.2572 33.0643L33.2739 33.0665L33.2874 33.0683L33.3113 33.071L33.3866 33.0789C33.4049 33.0808 33.4232 33.0824 33.4416 33.0836L33.5168 33.0888C33.5352 33.09 33.5536 33.0909 33.572 33.0915L33.6472 33.0938L33.6691 33.0944C33.6803 33.0945 33.6915 33.0946 33.7027 33.0945L33.7779 33.0941L33.8063 33.0937L33.8334 33.0927L33.9087 33.0895C33.9271 33.0887 33.9455 33.0876 33.9639 33.0861L34.0392 33.0801C34.0574 33.0787 34.0756 33.0769 34.0938 33.0747L34.169 33.0659C34.1871 33.0638 34.205 33.0614 34.223 33.0586L34.2982 33.0471C34.316 33.0443 34.3337 33.0413 34.3513 33.0379L34.4265 33.0236L34.4444 33.02C34.4505 33.0188 34.4566 33.0175 34.4626 33.0162C34.4679 33.0151 34.4731 33.0139 34.4784 33.0127L34.5536 32.9956L34.5753 32.9905L34.6043 32.9831L34.6796 32.9632C34.6906 32.9603 34.7017 32.9572 34.7127 32.954L34.7286 32.9493L34.8039 32.9267C34.8199 32.9218 34.8358 32.9167 34.8516 32.9114L34.9268 32.886L34.9531 32.8768L34.9727 32.8696L35.048 32.8414C35.0628 32.8358 35.0776 32.83 35.0923 32.824L35.1676 32.793C35.1818 32.7871 35.196 32.781 35.2101 32.7747L35.2853 32.741C35.2989 32.7349 35.3125 32.7286 35.3259 32.7221L35.4012 32.6857C35.4143 32.6793 35.4273 32.6728 35.4402 32.6661L35.5154 32.6269L35.5312 32.6185L35.5525 32.6069L35.6278 32.565L35.6465 32.5544L35.663 32.5447L35.7383 32.5L35.7543 32.4904L35.7719 32.4795L35.8472 32.4321L35.8625 32.4224L35.879 32.4115L35.9543 32.3615C35.9605 32.3573 35.9667 32.3531 35.9728 32.3489C35.9768 32.3462 35.9807 32.3435 35.9846 32.3408L36.0598 32.288C36.0694 32.2813 36.0789 32.2744 36.0884 32.2675L36.1636 32.212L36.1811 32.199L36.1908 32.1916L36.266 32.1335C36.2746 32.1268 36.2832 32.12 36.2917 32.1132L36.3669 32.0524L36.3803 32.0415L36.3912 32.0324L36.4664 31.969L36.4718 31.9645L36.4893 31.9493L36.5646 31.8832L36.5863 31.8638L36.6615 31.7951L36.6819 31.7761L36.7572 31.7048L36.7765 31.6862L36.8517 31.6123L36.87 31.594L36.9453 31.5175L36.9625 31.4997L37.0377 31.4207L37.054 31.4032L37.1293 31.3216L37.1447 31.3047L37.2199 31.2205L37.2344 31.204L37.3097 31.1173L37.3234 31.1012L37.3987 31.012L37.4117 30.9964L37.4869 30.9047L37.4992 30.8895L37.5744 30.7953L37.5861 30.7806L37.6613 30.6839L37.6724 30.6696L37.7476 30.5705L37.758 30.5566L37.8333 30.4551L37.8432 30.4416L37.9184 30.3377L37.9278 30.3246L38.003 30.2183L38.0119 30.2057L38.0871 30.097L38.0956 30.0847L38.1708 29.9737L38.1789 29.9617L38.2542 29.8484L38.337 29.7213L38.4194 29.5922L38.5016 29.4611L38.5833 29.3283L38.6648 29.1934L38.7459 29.0568L38.8268 28.9183L38.9074 28.7779L38.9877 28.6357L39.0678 28.4917L39.1477 28.3459L39.2274 28.1984L39.2316 28.1904L39.3069 28.049L39.3109 28.0414L39.3861 27.898L39.39 27.8906L39.4652 27.7452L39.4689 27.738L39.5441 27.5907L39.5477 27.5838L39.6229 27.4346L39.6263 27.4279L39.7015 27.2768L39.7047 27.2703L39.78 27.1173L39.783 27.1111L39.8583 26.9563L39.8612 26.9502L39.9365 26.7937L39.9393 26.7878L40.0145 26.6295L40.0172 26.6238L40.0925 26.4637L40.095 26.4582L40.1703 26.2965L40.1728 26.2911L40.248 26.1277L40.2503 26.1226L40.3256 25.9575L40.3279 25.9525L40.4031 25.7858L40.4053 25.781L40.4805 25.6128L40.4826 25.6081L40.5578 25.4384L40.5598 25.4338L40.635 25.2625L40.637 25.2581L40.7122 25.0854L40.714 25.0812L40.7892 24.9069L40.791 24.9029L40.8662 24.7272L40.8679 24.7233L40.9431 24.5463L40.9447 24.5425L41.02 24.3641L41.0215 24.3605L41.0967 24.1807L41.0982 24.1772L41.1735 23.9962L41.2514 23.8074L41.3279 23.6208L41.4032 23.4361L41.4808 23.2444L41.556 23.0575L41.6324 22.8668L41.7087 22.675L41.7859 22.4801L41.8611 22.289L41.9382 22.0926L42.0895 21.7039L42.1655 21.5073L42.2421 21.3083L42.3174 21.1122L42.5449 20.515L42.548 20.5068L44.9526 14.0614L44.9557 14.0532L45.0279 13.8632L45.1765 13.4738L45.2517 13.2777L45.5497 12.509L45.6231 12.3216L45.6974 12.133L45.7727 11.9429L45.8469 11.7564L45.92 11.5738L45.9941 11.3898L46.0681 11.207L46.1433 11.0223L46.2173 10.8419L46.2898 10.6663L46.3636 10.4887L46.365 10.4852L46.4388 10.309L46.5109 10.138L46.5125 10.1342L46.5845 9.96482L46.5862 9.96089L46.658 9.79319L46.7314 9.62309L46.7332 9.61892L46.8047 9.45462L46.8067 9.45028L46.878 9.28784L46.88 9.28329L46.9512 9.12263L46.9532 9.11802L47.0242 8.95917L47.0264 8.95436L47.0972 8.79752L47.0995 8.79248L47.1701 8.63754L47.1724 8.63244L47.2429 8.47943L47.2453 8.4741L47.3155 8.32322L47.3181 8.31766L47.3881 8.1688L47.3908 8.16315L47.4605 8.01638L47.4633 8.01046L47.5328 7.86589L47.5357 7.8598L47.605 7.71737L47.608 7.71111L47.677 7.57092L47.6802 7.5644L47.7489 7.42652L47.7522 7.4198L47.8206 7.28419L47.8241 7.27727L47.8921 7.14404L47.8958 7.13686L47.9635 7.00603L47.9674 6.99863L48.0347 6.87021L48.0388 6.86259L48.1057 6.73666L48.11 6.72875L48.1766 6.60537L48.181 6.59722L48.2472 6.47635L48.2518 6.46797L48.3175 6.34973L48.3224 6.34101L48.3877 6.22545L48.3928 6.21648L48.4576 6.10355L48.4629 6.09432L48.5272 5.98415L48.5328 5.97456L48.5965 5.86717L48.6024 5.85732L48.6655 5.75277L48.6717 5.74253L48.7342 5.64081L48.7407 5.63035L48.8026 5.53147L48.8095 5.52062L48.8743 5.41912L48.942 5.31503L49.0095 5.21337L49.0767 5.11427L49.1432 5.01816L49.2092 4.92482L49.2748 4.83422L49.34 4.74628L49.4045 4.66127L49.4685 4.57903L49.5316 4.50009L49.5944 4.42349L49.6561 4.35026L49.7173 4.27969L49.7776 4.21224L49.8369 4.14788L49.8956 4.08617L49.953 4.02779L50.0094 3.97234L50.0649 3.91971L50.119 3.87027L50.172 3.8237L50.2237 3.78008L50.274 3.73948L50.323 3.70161L50.3703 3.66671L50.4161 3.63458L50.4603 3.60513L50.5029 3.57833L50.5437 3.5541L50.5827 3.53233L50.62 3.51289L50.6554 3.4957L50.6891 3.4806L50.7209 3.46748L50.7511 3.45614L50.7796 3.4465L50.8064 3.4384L50.8317 3.43168L50.8557 3.4262L50.8785 3.42184L50.9003 3.41847L50.9212 3.41601L50.9415 3.41438L50.9614 3.41351L50.9811 3.41338L51.001 3.41398L51.0211 3.41534L51.0418 3.4175L51.0632 3.42054L51.0856 3.42454L51.1092 3.4296L51.134 3.43587L51.1603 3.44347L51.1882 3.45255L51.2178 3.46327L51.249 3.47574L51.282 3.49011L51.3168 3.50654L51.3535 3.5252L51.3918 3.5461L51.4321 3.56948L51.474 3.59537L51.5176 3.62386L51.5628 3.65498L51.6097 3.689L51.6581 3.72575L51.7078 3.76535L51.7591 3.80796L51.8116 3.85341L51.8654 3.90192L51.9203 3.95334L51.9764 4.00778L52.0336 4.06524L52.0918 4.12573L52.1508 4.1891L52.2109 4.25556L52.2716 4.32483L52.3333 4.39736L52.3956 4.47259L52.4586 4.55073L52.5224 4.63194L52.5867 4.71591L52.6515 4.80261L52.717 4.89233L52.783 4.98492L52.8494 5.08003L52.9161 5.17786L52.9836 5.27875L53.0512 5.3819L53.1158 5.48246L53.1228 5.49347L53.1844 5.59119L53.1911 5.60186L53.2534 5.70252L53.2597 5.71283L53.3226 5.81643L53.3286 5.82638L53.3921 5.93278L53.3978 5.94249L53.4619 6.0517L53.4673 6.06101L53.5319 6.17298L53.5372 6.18207L53.6022 6.29666L53.6072 6.30548L53.6727 6.42276L53.6775 6.43126L53.7435 6.55122L53.748 6.55943L53.8144 6.68193L53.8187 6.68994L53.8856 6.81501L53.8897 6.82268L53.9569 6.95024L53.9608 6.95776L54.0284 7.08769L54.0321 7.09495L54.1 7.22732L54.1036 7.23434L54.1719 7.36914L54.1753 7.37589L54.2439 7.51304L54.2471 7.51959L54.316 7.65894L54.3191 7.66535L54.3882 7.80693L54.3912 7.81309L54.4606 7.95694L54.4634 7.96288L54.5331 8.10887L54.5358 8.11466L54.6057 8.26277L54.6083 8.26833L54.6785 8.41858L54.681 8.42395L54.7513 8.57617L54.7537 8.58144L54.8242 8.73563L54.8265 8.74068L54.8973 8.8969L54.8995 8.90175L54.9704 9.05988L54.9725 9.06462L55.0436 9.22462L55.0456 9.22915L55.117 9.39105L55.1189 9.39542L55.1903 9.55905L55.1922 9.56335L55.2638 9.72871L55.2656 9.7328L55.3374 9.89995L55.339 9.90389L55.411 10.0727L55.4126 10.0765L55.4847 10.247L55.5599 10.4263L55.6322 10.5998L55.7075 10.7817L55.7801 10.9583L55.8541 11.1395L55.9281 11.322L56.0034 11.5086L56.0775 11.6934L56.1506 11.8768L56.2258 12.0665L56.2992 12.2524L56.4479 12.6321L56.5976 13.0178L56.746 13.4032L56.8212 13.5998L56.9673 13.9832L56.9705 13.9917L59.4502 20.6351L59.7565 21.4358L59.7572 21.4376L59.9092 21.8305L59.9845 22.0237L59.9853 22.0258L60.0615 22.2204L60.1367 22.4118L60.2139 22.607L60.2891 22.7964L60.3665 22.9901L60.4417 23.1774L60.5193 23.3694L60.5946 23.5545L60.6724 23.7446L60.7476 23.9273L60.8242 24.1121L60.9009 24.2958L60.9024 24.2993L60.9776 24.4782L60.9792 24.4819L61.0545 24.6595L61.0561 24.6634L61.1314 24.8395L61.133 24.8434L61.2083 25.0182L61.2101 25.0224L61.2853 25.1957L61.2872 25.2L61.3625 25.3718L61.3644 25.3762L61.4417 25.5512L61.5169 25.72L61.5943 25.892L61.5965 25.8969L61.6718 26.0626L61.6741 26.0677L61.7493 26.2317L61.7518 26.2369L61.827 26.3993L61.8295 26.4047L61.9048 26.5653L61.9075 26.571L61.9827 26.73L61.9854 26.7357L62.0607 26.8929L62.0636 26.8989L62.1388 27.0543L62.1419 27.0606L62.2171 27.2142L62.2203 27.2206L62.2955 27.3723L62.2988 27.3789L62.374 27.5288L62.3775 27.5357L62.4528 27.6837L62.4564 27.6907L62.5316 27.8368L62.5354 27.8441L62.6107 27.9882L62.6147 27.9958L62.6899 28.1379L62.694 28.1457L62.7693 28.2858L62.7736 28.2939L62.8489 28.432L62.8535 28.4404L62.9287 28.5764L62.9335 28.5849L63.0087 28.7188L63.0138 28.7278L63.089 28.8596L63.0943 28.8688L63.1695 28.9985L63.175 29.0079L63.2502 29.1355L63.2561 29.1453L63.3314 29.2707L63.3374 29.2807L63.4127 29.4039L63.4191 29.4143L63.4943 29.5352L63.5011 29.546L63.5763 29.6647L63.6586 29.7922L63.7413 29.9177L63.7492 29.9296L63.8245 30.0415L63.8327 30.0536L63.908 30.1631L63.9167 30.1756L63.9919 30.2827L64.0011 30.2957L64.0764 30.4004L64.0861 30.4138L64.1614 30.5162L64.1716 30.5299L64.2468 30.6299L64.2576 30.644L64.3329 30.7415L64.3443 30.7561L64.4195 30.8512L64.4316 30.8662L64.5068 30.9588L64.5196 30.9743L64.5948 31.0644L64.6083 31.0803L64.6836 31.1679L64.6978 31.1842L64.773 31.2693L64.7881 31.2861L64.8634 31.3686L64.8793 31.3858L64.9546 31.4658L64.9715 31.4835L65.0467 31.5609L65.0646 31.579L65.1398 31.6538L65.1588 31.6723L65.234 31.7446L65.2541 31.7634L65.3293 31.833L65.3506 31.8523L65.4258 31.9193L65.4482 31.9389L65.5235 32.0032C65.5313 32.01 65.5392 32.0166 65.5472 32.0231L65.6225 32.0849L65.6337 32.094L65.6477 32.1051L65.7229 32.1641L65.7363 32.1745L65.7496 32.1846L65.8248 32.2409C65.8341 32.2479 65.8434 32.2547 65.8528 32.2614L65.9281 32.3151L65.9476 32.3289L65.9577 32.3358L66.033 32.3868L66.0485 32.3971L66.0643 32.4075L66.1396 32.4558C66.1455 32.4596 66.1515 32.4634 66.1575 32.4671C66.1625 32.4702 66.1675 32.4733 66.1725 32.4763L66.2477 32.5219C66.2592 32.5289 66.2708 32.5357 66.2825 32.5424L66.3578 32.5852L66.3674 32.5906L66.3808 32.5981L66.3942 32.6053L66.4694 32.6455L66.4847 32.6535L66.5078 32.6652L66.583 32.7027L66.6023 32.7121L66.623 32.7218L66.6982 32.7565C66.7102 32.762 66.7222 32.7673 66.7343 32.7725L66.7401 32.775L66.8154 32.807C66.8298 32.8131 66.8444 32.819 66.859 32.8247L66.9343 32.8539C66.9421 32.8569 66.9499 32.8599 66.9578 32.8628C66.9651 32.8654 66.9724 32.8681 66.9797 32.8706L67.0549 32.897C67.0639 32.9002 67.0729 32.9033 67.082 32.9063C67.0887 32.9085 67.0953 32.9106 67.102 32.9127L67.1773 32.9364L67.1992 32.9431L67.2258 32.9507L67.301 32.9716C67.3177 32.9763 67.3345 32.9806 67.3513 32.9846L67.4266 33.0028L67.4483 33.0078C67.4581 33.01 67.468 33.0121 67.4779 33.0142L67.5531 33.0295L67.5816 33.035L67.6058 33.0393L67.681 33.0518L67.7088 33.0562L67.7347 33.0598L67.81 33.0696L67.8384 33.073L67.8643 33.0756L67.9396 33.0826C67.9579 33.0843 67.9763 33.0857 67.9947 33.0867L68.0699 33.091C68.0884 33.092 68.1068 33.0927 68.1253 33.093L68.2005 33.0945L68.2299 33.0947L68.256 33.0945L68.3313 33.0931L68.3579 33.0924L68.3867 33.0911L68.4619 33.087L68.4836 33.0856C68.4903 33.0851 68.497 33.0846 68.5037 33.0841C68.5081 33.0837 68.5125 33.0833 68.5169 33.0829L68.5922 33.076L68.6164 33.0736L68.6327 33.0717L68.6466 33.07L68.7218 33.0603C68.7398 33.058 68.7578 33.0553 68.7757 33.0523L68.8509 33.0399C68.861 33.0382 68.8711 33.0364 68.8812 33.0345L68.9034 33.0302L68.9787 33.0149L68.9909 33.0124C69.0041 33.0096 69.0172 33.0066 69.0302 33.0035L69.1055 32.9855C69.1223 32.9814 69.139 32.9771 69.1556 32.9725L69.2309 32.9517C69.2381 32.9497 69.2453 32.9476 69.2526 32.9455C69.2615 32.9429 69.2705 32.9402 69.2794 32.9374L69.3547 32.9138L69.3769 32.9066L69.402 32.8981L69.4772 32.8718L69.5006 32.8634L69.5225 32.8551L69.5978 32.826C69.6124 32.8203 69.627 32.8144 69.6414 32.8083L69.7167 32.7764C69.7308 32.7704 69.7449 32.7642 69.7588 32.7578L69.834 32.7232C69.8474 32.717 69.8607 32.7107 69.874 32.7041L69.9492 32.6668L69.9729 32.6548L69.9876 32.647L70.0628 32.607C70.0751 32.6004 70.0873 32.5937 70.0994 32.5868L70.1746 32.544C70.1863 32.5374 70.1979 32.5306 70.2094 32.5236L70.2846 32.4781L70.3035 32.4665L70.3176 32.4576L70.3928 32.4093L70.4117 32.397L70.4243 32.3886L70.4996 32.3376L70.5128 32.3286L70.5291 32.3171L70.6043 32.2635C70.6138 32.2567 70.6232 32.2499 70.6326 32.2429L70.7078 32.1866C70.7168 32.1798 70.7257 32.173 70.7345 32.1661L70.8098 32.1071C70.8182 32.1005 70.8265 32.0938 70.8348 32.087L70.9101 32.0254C70.9146 32.0217 70.9191 32.0179 70.9237 32.0141C70.9271 32.0113 70.9305 32.0084 70.9339 32.0055L71.0091 31.9412L71.0192 31.9325L71.0317 31.9215L71.107 31.8545L71.1281 31.8354L71.2033 31.7659L71.2234 31.7469L71.2987 31.6748L71.3178 31.6561L71.393 31.5814L71.4108 31.5634L71.4861 31.486L71.503 31.4684L71.5782 31.3885L71.5942 31.3712L71.6695 31.2887L71.6846 31.272L71.7598 31.187L71.7741 31.1706L71.8494 31.083L71.8629 31.0671L71.9381 30.9771L71.9509 30.9616L72.0261 30.8691L72.0382 30.854L72.1134 30.7591L72.1249 30.7444L72.2001 30.647L72.2109 30.6328L72.2861 30.533L72.2964 30.5192L72.3717 30.4169L72.3814 30.4035L72.4567 30.2988L72.4658 30.2859L72.5411 30.1788L72.5498 30.1662L72.6251 30.0568L72.6333 30.0447L72.7086 29.9329L72.7165 29.9211L72.7918 29.807L72.8744 29.6792L72.8816 29.668L72.9568 29.5494L72.9635 29.5387L73.0388 29.4178L73.0452 29.4074L73.1204 29.2843L73.1265 29.2742L73.2018 29.1489L73.2076 29.1391L73.2828 29.0116L73.2884 29.0021L73.3636 28.8725L73.3689 28.8633L73.4442 28.7315L73.4492 28.7226L73.5244 28.5887L73.5292 28.5801L73.6044 28.4442L73.609 28.4358L73.6843 28.2978L73.6886 28.2897L73.7639 28.1496L73.768 28.1418L73.8433 27.9998L73.8473 27.9922L73.9225 27.8481L73.9263 27.8408L74.0015 27.6948L74.0052 27.6877L74.0804 27.5398L74.0839 27.5329L74.1591 27.3831L74.1624 27.3765L74.2377 27.2248L74.2409 27.2183L74.3161 27.0647L74.3191 27.0586L74.3943 26.9032L74.3972 26.8973L74.4725 26.7401L74.4753 26.7342L74.5505 26.5753L74.5532 26.5697L74.6284 26.4091L74.6309 26.4037L74.7062 26.2414L74.7086 26.2361L74.7862 26.067L74.8614 25.9015L74.8636 25.8966L74.9389 25.7294L74.9411 25.7245L75.0163 25.5558L75.0183 25.5512L75.0936 25.3809L75.0955 25.3765L75.1708 25.2047L75.1727 25.2003L75.2479 25.027L75.2497 25.0229L75.3249 24.8482L75.3266 24.8443L75.4019 24.6681L75.4035 24.6642L75.4788 24.4867L75.5571 24.3006L75.6323 24.1204L75.7104 23.9323L75.7856 23.7496L75.8635 23.5594L75.9387 23.3743L76.0163 23.1824L76.0926 22.9924L76.1678 22.804L76.2451 22.6096L76.3204 22.4192L76.4735 22.0288L76.5488 21.8357L76.6248 21.6396L76.7775 21.2436L76.8533 21.0456L76.9286 20.8486L76.9292 20.847L77.0044 20.6493L77.0078 20.6403L79.4875 13.9969L79.4907 13.9884L79.5622 13.8006L79.5628 13.799L79.6374 13.6033L79.7866 13.2142L79.8604 13.0228L79.9348 12.8306L80.0092 12.6394L80.0101 12.6372L80.0836 12.449L80.1589 12.2573L80.2332 12.069L80.3074 11.8817L80.3806 11.6983L80.4547 11.5135L80.5288 11.3297L80.604 11.1443L80.6767 10.9662L80.7506 10.7864L80.7519 10.7831L80.8258 10.6045L80.8982 10.4309L80.9734 10.2516L81.0471 10.0772L81.119 9.90844L81.1925 9.73727L81.1943 9.73322L81.2677 9.56348L81.3392 9.39984L81.3411 9.39549L81.4124 9.23349L81.4144 9.22899L81.4856 9.06894L81.4877 9.06417L81.5586 8.90605L81.5608 8.90118L81.6316 8.74487L81.6338 8.73988L81.7044 8.58564L81.7068 8.58032L81.7771 8.42808L81.7796 8.42274L81.8498 8.27238L81.8524 8.26686L81.9222 8.11869L81.925 8.11288L81.9946 7.96688L81.9975 7.96093L82.0669 7.81703L82.0699 7.81088L82.139 7.66921L82.1421 7.66284L82.211 7.52335L82.2142 7.51684L82.2828 7.37968L82.2863 7.37285L82.3545 7.23807L82.3581 7.23106L82.426 7.09861L82.4297 7.09136L82.4973 6.96132L82.5012 6.95385L82.5685 6.82624L82.5726 6.81852L82.6394 6.69336L82.6437 6.68544L82.7101 6.56287L82.7147 6.55459L82.7807 6.43465L82.7854 6.42613L82.851 6.30876L82.8559 6.29999L82.921 6.18528L82.9262 6.17621L82.9908 6.0642L82.9963 6.05485L83.0604 5.94552L83.0661 5.93592L83.1296 5.82944L83.1356 5.8194L83.1985 5.71582L83.2048 5.70552L83.2671 5.60475L83.2737 5.59412L83.3354 5.49627L83.3424 5.48529L83.4033 5.3904L83.4106 5.37908L83.4708 5.28711L83.4785 5.2755L83.5379 5.18663L83.5461 5.17452L83.6046 5.0888L83.6131 5.07636L83.6708 4.9937L83.6798 4.98088L83.7365 4.90137L83.746 4.88815L83.8017 4.81184L83.8117 4.79821L83.8663 4.72508L83.8769 4.71109L83.9303 4.64129L83.9416 4.62676L83.9997 4.55287L84.0627 4.47466L84.1253 4.39897L84.1865 4.32703L84.2477 4.25721L84.3076 4.19082L84.3666 4.12739L84.4249 4.06678L84.4822 4.00918L84.5382 3.9547L84.5931 3.90328L84.647 3.85465L84.6996 3.8091L84.7508 3.76648L84.8007 3.72674L84.8491 3.68989L84.896 3.65583L84.9412 3.62466L84.9848 3.59615L85.027 3.57007L85.0671 3.54672L85.1056 3.52568L85.1422 3.50703L85.1771 3.49054L85.2102 3.47607L85.2414 3.46358L85.2711 3.45281L85.299 3.44369L85.3253 3.43605L85.3502 3.42975L85.3738 3.42465L85.3962 3.42063L85.4177 3.41757L85.4384 3.41539L85.4585 3.41401L85.4783 3.41339L85.4981 3.4135L85.518 3.41434L85.5382 3.41596L85.5592 3.4184L85.5809 3.42173L85.6037 3.42607L85.6276 3.43151L85.6529 3.4382L85.6797 3.44628L85.7082 3.45588L85.7382 3.46713L85.7701 3.48026L85.8037 3.49527L85.839 3.5124L85.8762 3.53176L85.9153 3.55352L85.9561 3.57769L85.9986 3.60443L86.0426 3.63366L86.0885 3.66588L86.1358 3.7007L86.1848 3.73847L86.2348 3.77889L86.2866 3.82255L86.3395 3.86896L86.3938 3.91851L86.4489 3.97066L86.5055 4.02629L86.5631 4.08481L86.6215 4.14621L86.6807 4.21037L86.741 4.27785L86.8022 4.34832L86.8642 4.42183L86.9267 4.49792L86.9841 4.56962L86.9958 4.58439L87.0483 4.65183L87.0594 4.66623L87.1131 4.73703L87.1235 4.75088L87.1785 4.82506L87.1884 4.83851L87.2443 4.91572L87.2538 4.92894L87.3107 5.00934L87.3195 5.02198L87.3775 5.10565L87.3859 5.11796L87.4447 5.20462L87.4527 5.21662L87.5123 5.3064L87.5199 5.31791L87.5804 5.41084L87.5876 5.42199L87.6487 5.51773L87.6556 5.52872L87.7174 5.62739L87.7239 5.63786L87.7865 5.73956L87.7927 5.74976L87.8558 5.85421L87.8617 5.86414L87.9254 5.97152L87.931 5.98098L87.9952 6.09107L88.0007 6.10046L88.0654 6.21323L88.0705 6.22215L88.1358 6.33772L88.1406 6.34642L88.2064 6.46459L88.211 6.47301L88.2771 6.59372L88.2816 6.60194L88.3482 6.72533L88.3524 6.73311L88.4193 6.85898L88.4234 6.86673L88.4907 6.99501L88.4946 7.00237L88.5623 7.1332L88.566 7.14037L88.634 7.27355L88.6375 7.28049L88.7059 7.41596L88.7093 7.42274L88.7779 7.56063L88.7811 7.56703L88.85 7.70715L88.8532 7.71355L88.9224 7.85586L88.9253 7.86189L88.9948 8.00648L88.9976 8.01239L89.0673 8.15908L89.07 8.16478L89.14 8.31358L89.1426 8.3191L89.2128 8.46998L89.2152 8.47531L89.2856 8.62816L89.288 8.63338L89.3586 8.78826L89.3608 8.7932L89.4317 8.95009L89.4338 8.95492L89.5048 9.11361L89.5069 9.11832L89.5781 9.27899L89.58 9.28339L89.6514 9.44587L89.6534 9.45028L89.7248 9.6144L89.7983 9.78463L89.8001 9.78863L89.8719 9.95636L89.8736 9.96027L89.9455 10.1296L90.0193 10.3044L90.0208 10.308L90.093 10.4806L90.1669 10.6581L90.1683 10.6616L90.2421 10.8404L90.3148 11.0175L90.39 11.2022L90.4628 11.3821L90.5381 11.569L90.6111 11.7515L90.6854 11.938L90.7606 12.128L90.834 12.3143L90.9092 12.5062L90.9828 12.6947L91.058 12.8884L91.1317 13.079L91.207 13.2744L91.3561 13.6637L91.4302 13.8581L91.4307 13.8596L91.5023 14.0479L91.5054 14.0562L93.91 20.5015L93.913 20.5097L93.9883 20.7078L93.9889 20.7094L94.0641 20.9069L94.0647 20.9085L94.14 21.1053L94.1406 21.107L94.2158 21.3031L94.2166 21.305L94.2918 21.5003L94.2925 21.5021L94.3678 21.6967L94.3685 21.6987L94.4438 21.8924L94.4446 21.8946L94.5199 22.0874L94.5968 22.2839L94.6731 22.4774L94.7483 22.6675L94.8256 22.8617L94.9008 23.0497L94.9784 23.2423L95.0548 23.4312L95.1301 23.6158L95.2079 23.8057L95.2845 23.9913L95.3598 24.1723L95.438 24.3593L95.5132 24.5377L95.5901 24.7185L95.5918 24.7225L95.667 24.8982L95.744 25.0765L95.7458 25.0806L95.821 25.2535L95.8229 25.2579L95.8982 25.4292L95.9002 25.4337L95.9754 25.6035L95.9775 25.6082L96.0527 25.7765L96.0549 25.7813L96.1301 25.948L96.1324 25.953L96.2076 26.1181L96.21 26.1232L96.2852 26.2867L96.2877 26.2921L96.3629 26.4538L96.3655 26.4593L96.4407 26.6194L96.4434 26.6251L96.5187 26.7835L96.5215 26.7894L96.5967 26.946L96.5997 26.952L96.6749 27.1069L96.678 27.1131L96.7532 27.2661L96.7564 27.2726L96.8317 27.4237L96.835 27.4304L96.9103 27.5797L96.9138 27.5867L96.989 27.734L96.9927 27.7411L97.0679 27.8866L97.0718 27.894L97.1471 28.0375L97.1511 28.045L97.2263 28.1865L97.2305 28.1944L97.3058 28.3339L97.3102 28.3421L97.3855 28.4795L97.3901 28.4879L97.4653 28.6232L97.4702 28.6319L97.5454 28.7652L97.5505 28.7741L97.6258 28.9053L97.6311 28.9146L97.7064 29.0436L97.712 29.0532L97.7873 29.18L97.7931 29.1898L97.8683 29.3145L97.8746 29.3247L97.9498 29.4471L97.9564 29.4577L98.0316 29.5779L98.0384 29.5886L98.1136 29.7066L98.1209 29.7179L98.1961 29.8336L98.279 29.9585L98.2869 29.9704L98.3622 30.0814L98.3706 30.0937L98.4459 30.2024L98.4548 30.2152L98.53 30.3215L98.5393 30.3345L98.6145 30.4385L98.6245 30.4521L98.6997 30.5536L98.7102 30.5676L98.7854 30.6667L98.7963 30.6809L98.8716 30.7776L98.8833 30.7924L98.9585 30.8867L98.9708 30.9019L99.046 30.9936L99.0589 31.0091L99.1342 31.0984L99.148 31.1146L99.2233 31.2014L99.2378 31.2178L99.313 31.3021L99.3283 31.319L99.4036 31.4006L99.4199 31.4181L99.4951 31.4972L99.5123 31.515L99.5876 31.5916L99.6057 31.6097L99.681 31.6837L99.7004 31.7024L99.7756 31.7738L99.796 31.7928L99.8712 31.8615L99.8928 31.8809L99.9681 31.947L99.9813 31.9586L99.991 31.9668L100.066 32.0303L100.075 32.0376L100.09 32.0503L100.166 32.1111L100.181 32.1234L100.191 32.1313L100.266 32.1895L100.275 32.1961L100.294 32.21L100.369 32.2655L100.381 32.2741L100.397 32.2861L100.473 32.3389L100.486 32.3481L100.503 32.3595L100.578 32.4097L100.593 32.4196L100.61 32.4303L100.685 32.4777L100.706 32.4907L100.719 32.4983L100.794 32.543L100.813 32.5543L100.829 32.5633L100.905 32.6053C100.909 32.6078 100.914 32.6103 100.918 32.6128C100.926 32.617 100.934 32.6212 100.942 32.6253L101.017 32.6646C101.03 32.6713 101.043 32.6778 101.056 32.6841L101.131 32.7206C101.144 32.7272 101.158 32.7335 101.172 32.7396L101.247 32.7734L101.269 32.7832L101.289 32.7917L101.365 32.8227C101.379 32.8288 101.394 32.8346 101.409 32.8402L101.484 32.8684C101.499 32.8741 101.515 32.8796 101.53 32.8848L101.605 32.9103C101.614 32.9133 101.623 32.9161 101.631 32.9189C101.638 32.9212 101.646 32.9234 101.653 32.9256L101.728 32.9484C101.736 32.9507 101.743 32.9529 101.751 32.9551C101.76 32.9576 101.768 32.96 101.777 32.9623L101.852 32.9823C101.866 32.9859 101.879 32.9893 101.893 32.9925L98.0334 22.7882L97.9823 22.6643L97.9071 22.4808L97.8343 22.3023L97.7602 22.1193L97.685 21.9324L97.6119 21.7498L97.5367 21.5607L97.4634 21.3756L97.3891 21.1869L97.3138 20.9949L97.2403 20.8064L97.2395 20.8042L97.1658 20.6146L97.1651 20.6127L97.0913 20.4219L97.0906 20.4201L97.0168 20.2285L97.0161 20.2266L96.9422 20.034L96.9415 20.0324L96.8676 19.8388L96.8669 19.8372L96.7929 19.6429L96.7923 19.6413L96.7207 19.4529L96.7177 19.4448L94.3131 12.9993L94.2347 12.7929L94.2341 12.7914L94.1589 12.594L94.0071 12.1978L93.9305 11.9988L93.8553 11.8042L93.7792 11.6085L93.7784 11.6064L93.7032 11.4135L93.6261 11.2171L93.5509 11.0261L93.4737 10.8311L93.3222 10.4514L93.2458 10.2617L93.2446 10.2588L93.1694 10.073L93.1682 10.0701L93.0929 9.88541L93.0164 9.69882L92.9399 9.51338L92.8632 9.32897L92.7865 9.1457L92.7098 8.96378L92.6329 8.78292L92.556 8.60336L92.479 8.42512L92.402 8.24809L92.3248 8.07239L92.2476 7.89821L92.1703 7.72527L92.0929 7.55378L92.0154 7.3838L91.9378 7.21519L91.86 7.04813L91.7822 6.88258L91.7043 6.71859L91.6262 6.55615L91.5481 6.39538L91.4697 6.23606L91.3913 6.07859L91.3127 5.92263L91.2339 5.7684L91.155 5.61589L91.0759 5.46514L90.9966 5.31598L90.9172 5.16881L90.8375 5.02324L90.7576 4.87954L90.6775 4.73765L90.5971 4.59765L90.5165 4.45933L90.4357 4.3231L90.3545 4.18859L90.273 4.05602L90.1913 3.92541L90.1091 3.79655L90.0267 3.66981L89.9438 3.54503L89.9358 3.53303L89.8605 3.42206L89.8521 3.40975L89.7769 3.30112L89.768 3.28848L89.6928 3.18221L89.6833 3.169L89.6081 3.06512L89.5982 3.05167L89.523 2.9502L89.5126 2.93635L89.4373 2.83729L89.4262 2.82289L89.351 2.72628L89.3394 2.71151L89.2641 2.61736L89.2519 2.60222L89.1766 2.51055L89.1635 2.4948L89.0883 2.40562L89.0746 2.3896L88.9993 2.30293L88.9848 2.28646L88.9096 2.20232L88.8941 2.1853L88.8189 2.1037L88.8026 2.08632L88.7273 2.00727L88.7101 1.98945L88.6349 1.91298L88.6166 1.89472L88.5413 1.82085L88.522 1.80221L88.4468 1.73093L88.4264 1.71194L88.3511 1.64327L88.3294 1.62383L88.2542 1.5578L88.2477 1.55214L88.2312 1.53807L88.156 1.47467C88.1509 1.47036 88.1457 1.46609 88.1406 1.46186C88.1376 1.45945 88.1347 1.45705 88.1317 1.45466L88.0565 1.39391C88.048 1.38706 88.0394 1.3803 88.0308 1.37364L87.9556 1.31556C87.9466 1.30864 87.9375 1.30182 87.9284 1.2951L87.8532 1.23969C87.8437 1.23273 87.8342 1.22588 87.8246 1.21915L87.7493 1.16642C87.7393 1.1594 87.7292 1.1525 87.719 1.14573L87.6438 1.0957C87.6332 1.08868 87.6226 1.0818 87.6119 1.07506L87.5366 1.02773C87.5255 1.02074 87.5143 1.0139 87.503 1.0072L87.4278 0.962593C87.4161 0.955661 87.4043 0.948889 87.3924 0.942278L87.3172 0.900388C87.3049 0.893553 87.2925 0.88689 87.2801 0.880403L87.2048 0.841241C87.192 0.834541 87.179 0.828028 87.1659 0.821705L87.0907 0.785281C87.0772 0.778748 87.0636 0.772419 87.0499 0.766294L86.9747 0.732611C86.9606 0.726307 86.9464 0.720221 86.9322 0.714354L86.8569 0.683422C86.8423 0.677392 86.8275 0.671595 86.8126 0.666034L86.7374 0.637856C86.7222 0.632145 86.7068 0.626682 86.6914 0.62147L86.6161 0.596054C86.6003 0.590718 86.5845 0.585646 86.5685 0.58084L86.4933 0.558189C86.477 0.553282 86.4606 0.548652 86.4441 0.544303L86.3689 0.52442C86.3521 0.519975 86.3352 0.515823 86.3182 0.511966L86.243 0.494857C86.2257 0.490937 86.2084 0.487323 86.191 0.484015L86.1158 0.469683C86.0982 0.466327 86.0805 0.463288 86.0628 0.460566L85.9875 0.449013C85.9696 0.446259 85.9516 0.44383 85.9336 0.441728L85.8583 0.432957C85.8401 0.430837 85.8219 0.42905 85.8037 0.427597L85.7284 0.421608C85.7101 0.420145 85.6917 0.419021 85.6732 0.418237L85.598 0.415033C85.5795 0.414246 85.561 0.413801 85.5425 0.413698L85.4673 0.413279C85.4488 0.413176 85.4303 0.413415 85.4118 0.413996L85.3366 0.416362C85.3181 0.416942 85.2997 0.417862 85.2813 0.419123L85.206 0.424273C85.1877 0.425527 85.1694 0.427117 85.1512 0.429042L85.0759 0.436976C85.0578 0.438885 85.0397 0.441123 85.0217 0.443689L84.9465 0.454404C84.9287 0.456944 84.9109 0.459806 84.8931 0.462987L84.8179 0.476482C84.8004 0.479614 84.783 0.483055 84.7657 0.486803L84.6905 0.503075C84.6733 0.506775 84.6563 0.510773 84.6393 0.515069L84.5641 0.534117C84.5475 0.53832 84.531 0.542809 84.5145 0.547579L84.4393 0.569396C84.4231 0.574073 84.4071 0.57902 84.3911 0.584235L84.3159 0.60882C84.3003 0.613918 84.2848 0.619272 84.2693 0.624879L84.1941 0.652225C84.1791 0.657682 84.1642 0.663378 84.1494 0.669312L84.0741 0.699415C84.0597 0.70519 84.0453 0.711189 84.0311 0.717409L83.9558 0.750265C83.942 0.756326 83.9282 0.762597 83.9145 0.769075L83.8392 0.804675C83.826 0.810936 83.8129 0.817391 83.7998 0.824037L83.7246 0.862375C83.7119 0.868823 83.6994 0.875451 83.6869 0.882256L83.6117 0.923326C83.5996 0.929913 83.5876 0.936665 83.5757 0.94358L83.5005 0.987373C83.4891 0.994038 83.4777 1.00086 83.4664 1.00782L83.3912 1.05433C83.3803 1.06105 83.3695 1.06791 83.3588 1.0749L83.2836 1.12411C83.2732 1.1309 83.2629 1.13781 83.2527 1.14486L83.1775 1.19677C83.1677 1.20351 83.158 1.21038 83.1484 1.21735L83.0732 1.27195C83.0639 1.27868 83.0547 1.28551 83.0456 1.29245L82.9703 1.34972C82.9615 1.35642 82.9528 1.36322 82.9442 1.37011L82.8689 1.43005C82.8607 1.43663 82.8525 1.4433 82.8444 1.45006L82.7691 1.51266L82.7581 1.52189L82.7457 1.53252L82.6705 1.59776L82.6484 1.61731L82.5732 1.68518L82.5524 1.70428L82.4771 1.77477L82.4575 1.79354L82.3822 1.86664L82.3636 1.88506L82.2884 1.96075L82.2709 1.9786L82.1957 2.05687L82.179 2.07444L82.1038 2.15527L82.0881 2.17243L82.0128 2.25581L81.9981 2.27239L81.9229 2.3583L81.9089 2.37452L81.8336 2.46294L81.8203 2.47878L81.7451 2.5697L81.7327 2.58491L81.6574 2.67831L81.6455 2.69327L81.5703 2.78914L81.559 2.80367L81.4838 2.90199L81.4732 2.91597L81.398 3.01672L81.3879 3.03035L81.3127 3.13351L81.3032 3.14673L81.2279 3.25227L81.2189 3.26509L81.1436 3.37301L81.1351 3.38544L81.0598 3.49571L81.0517 3.50782L80.9764 3.62038L80.8934 3.7469L80.8109 3.87545L80.8039 3.88642L80.7287 4.00588L80.7221 4.0165L80.6468 4.1382L80.6405 4.1485L80.5653 4.27241L80.5592 4.28245L80.484 4.40856L80.4783 4.41816L80.4031 4.54645L80.3976 4.5558L80.3224 4.68624L80.3172 4.69531L80.242 4.82786L80.237 4.83664L80.1618 4.97129L80.1571 4.97981L80.0818 5.11654L80.0773 5.12482L80.0021 5.26359L79.9978 5.27152L79.9226 5.41232L79.9185 5.42004L79.8432 5.56283L79.8393 5.5703L79.7641 5.71506L79.7603 5.72231L79.6851 5.86902L79.6815 5.87603L79.6063 6.02465L79.6028 6.03148L79.5276 6.18199L79.5244 6.1885L79.4491 6.34086L79.446 6.34723L79.3708 6.50142L79.3678 6.50757L79.2925 6.66357L79.2897 6.66952L79.2144 6.82728L79.2117 6.8331L79.1364 6.9926L79.1339 6.99812L79.0586 7.15934L79.0561 7.16468L78.9809 7.32758L78.9784 7.3329L78.9032 7.49745L78.9009 7.50244L78.8257 7.66861L78.8235 7.67348L78.7483 7.84124L78.7461 7.84601L78.6709 8.01533L78.6689 8.01982L78.5937 8.19066L78.5918 8.19501L78.5165 8.36735L78.4394 8.54549L78.4376 8.54954L78.3607 8.72872L78.2855 8.90534L78.2086 9.08719L78.1304 9.27363L78.0551 9.45424L77.9784 9.63962L77.9006 9.82911L77.8253 10.0134L77.7477 10.2048L77.6713 10.3942L77.5949 10.5846L77.5197 10.7733L77.4435 10.9656L77.3673 11.1587L77.2902 11.3549L77.215 11.5475L77.2141 11.5497L77.1381 11.7452L77.0621 11.9414L76.9869 12.1365L76.9109 12.3342L76.835 12.5326L76.7592 12.7314L76.7586 12.733L76.6833 12.9309L76.6801 12.9394L74.2006 19.5822L74.1972 19.5912L74.126 19.7783L74.1254 19.7799L74.0514 19.9737L73.9768 20.1682L73.8271 20.5567L73.7526 20.7488L73.679 20.9376L73.5294 21.3189L73.4561 21.5043L73.3809 21.6937L73.3078 21.8767L73.2337 22.0611L73.1584 22.2473L73.0857 22.4263L73.0104 22.6101L72.9379 22.7863L72.8626 22.9677L72.7903 23.1408L72.7151 23.3196L72.6431 23.4894L72.6414 23.4934L72.5696 23.6616L72.5679 23.6656L72.4961 23.8322L72.4943 23.8363L72.4228 24.0011L72.4209 24.0055L72.3495 24.1685L72.3475 24.1729L72.2763 24.3342L72.2742 24.3388L72.2032 24.4981L72.201 24.503L72.1302 24.6604L72.128 24.6653L72.0572 24.8209L71.9845 24.9796L71.982 24.9849L71.9118 25.1364L71.9092 25.1418L71.8392 25.2914L71.8365 25.297L71.7667 25.4444L71.7639 25.4503L71.6944 25.5955L71.6915 25.6015L71.6221 25.7447L71.6191 25.7508L71.5501 25.8917L71.5469 25.8982L71.4782 26.0368L71.4749 26.0434L71.4064 26.1797L71.4029 26.1866L71.3348 26.3206L71.3312 26.3277L71.2633 26.4593L71.2596 26.4666L71.1921 26.5957L71.1881 26.6033L71.121 26.73L71.1169 26.7378L71.0501 26.862L71.0458 26.8701L70.9795 26.9917L70.9749 27L70.909 27.1191L70.9042 27.1277L70.8388 27.2442L70.8338 27.253L70.7689 27.3667L70.7636 27.376L70.6992 27.4869L70.6936 27.4964L70.6298 27.6046L70.6239 27.6144L70.5606 27.7199L70.5545 27.7299L70.4918 27.8326L70.4854 27.843L70.4233 27.9428L70.4166 27.9534L70.3552 28.0502L70.348 28.0614L70.2874 28.1552L70.28 28.1666L70.2201 28.2574L70.2122 28.2692L70.1531 28.357L70.1448 28.3691L70.0866 28.4538L70.0779 28.4664L70.0206 28.548L70.0114 28.5609L69.9551 28.6393L69.9453 28.6526L69.8901 28.7277L69.8798 28.7415L69.8257 28.8134L69.8149 28.8276L69.7619 28.8962L69.7504 28.9109L69.6927 28.9835L69.6297 29.061L69.5677 29.1352L69.5064 29.2065L69.4456 29.2751L69.3861 29.3404L69.3274 29.4027L69.2694 29.4623L69.2126 29.5188L69.1572 29.5719L69.1024 29.6225L69.0489 29.6701L68.997 29.7144L68.9461 29.7561L68.8968 29.7948L68.8491 29.8305L68.8026 29.8636L68.758 29.8939L68.7149 29.9214L68.6736 29.9465L68.6341 29.969L68.5962 29.9891L68.5601 30.007L68.5259 30.0228L68.4935 30.0365L68.4628 30.0483L68.4338 30.0585L68.4066 30.067L68.3807 30.0742L68.3563 30.08L68.3332 30.0847L68.3112 30.0884L68.29 30.0911L68.2695 30.093L68.2495 30.0941L68.2297 30.0945L68.21 30.0941L68.19 30.093L68.1695 30.0911L68.1483 30.0883L68.1262 30.0846L68.103 30.0799L68.0786 30.074L68.0527 30.0668L68.0254 30.0582L67.9964 30.048L67.9657 30.0362L67.9332 30.0224L67.899 30.0066L67.8628 29.9886L67.825 29.9684L67.7854 29.9458L67.744 29.9208L67.7008 29.8931L67.6563 29.8628L67.6097 29.8296L67.5618 29.7937L67.5124 29.755L67.4618 29.7135L67.4096 29.6688L67.3561 29.6212L67.3016 29.5708L67.2459 29.5173L67.1889 29.4606L67.1313 29.4013L67.0722 29.3385L67.0128 29.2733L66.9519 29.2045L66.8908 29.1334L66.8286 29.059L66.7657 28.9815L66.7079 28.9087L66.6965 28.8941L66.6435 28.8254L66.6327 28.8112L66.5784 28.7392L66.5682 28.7254L66.5129 28.6503L66.5032 28.6368L66.4469 28.5585L66.4377 28.5455L66.3804 28.4639L66.3717 28.4513L66.3134 28.3665L66.3051 28.3544L66.2461 28.2666L66.2381 28.2547L66.1783 28.1639L66.1708 28.1525L66.1101 28.0585L66.103 28.0475L66.0417 27.9506L66.0349 27.9398L65.9728 27.84L65.9664 27.8297L65.9036 27.7269L65.8976 27.7169L65.8343 27.6114L65.8284 27.6015L65.7645 27.4932L65.759 27.4838L65.6946 27.3727L65.6893 27.3635L65.6244 27.2498L65.6193 27.2408L65.5539 27.1243L65.5491 27.1158L65.4832 26.9967L65.4786 26.9883L65.4124 26.8666L65.408 26.8586L65.3413 26.7343L65.3371 26.7265L65.27 26.5997L65.266 26.5922L65.1986 26.463L65.1948 26.4556L65.1269 26.3239L65.1234 26.3169L65.0552 26.1829L65.0517 26.1759L64.9832 26.0396L64.98 26.033L64.9112 25.8943L64.908 25.8879L64.839 25.747L64.8359 25.7407L64.7666 25.5976L64.7637 25.5916L64.6941 25.4462L64.6914 25.4404L64.6216 25.293L64.6189 25.2872L64.5489 25.1377L64.5464 25.1323L64.4761 24.9807L64.4736 24.9754L64.4031 24.8218L64.4008 24.8167L64.3301 24.6611L64.3279 24.6561L64.2549 24.4938L64.1839 24.3345L64.1106 24.1685L64.1086 24.1641L64.0372 24.001L64.0353 23.9967L63.9638 23.8319L63.9619 23.8277L63.8902 23.661L63.8885 23.6571L63.8166 23.4888L63.8149 23.4849L63.7414 23.3113L63.6692 23.1397L63.6677 23.1362L63.594 22.9595L63.5202 22.7815L63.4476 22.6053L63.3724 22.4215L63.2996 22.2425L63.2244 22.0563L63.0761 21.6862L63.0029 21.5019L62.9277 21.3115L62.8543 21.1249L62.7799 20.9348L62.7791 20.9326L62.7055 20.7437L62.631 20.5516L62.5565 20.3587L62.5557 20.3568L62.4073 19.9703L62.4067 19.9685L62.2608 19.586L62.2574 19.577L59.7779 12.9341L59.6236 12.5289L59.5471 12.329L59.3959 11.9363L59.3199 11.74L59.3191 11.738L59.2439 11.5446L59.0917 11.156L59.0155 10.9629L58.9393 10.7708L58.863 10.5795L58.7867 10.3892L58.7103 10.1998L58.6339 10.0115L58.5574 9.82419L58.4809 9.63798L58.4043 9.45285L58.3277 9.26884L58.2509 9.08598L58.1741 8.90441L58.0973 8.72398L58.0203 8.54485L57.9433 8.36699L57.8662 8.1904L57.7891 8.01522L57.7118 7.84141L57.6345 7.66895L57.557 7.49797L57.4795 7.32841L57.4018 7.16029L57.3241 6.99375L57.2463 6.82873L57.1683 6.66523L57.0902 6.50334L57.012 6.34304L56.9336 6.1843L56.8551 6.0273L56.7765 5.87197L56.6976 5.71829L56.6186 5.56632L56.5395 5.41605L56.4602 5.26764L56.3806 5.1209L56.3009 4.97601L56.2209 4.8329L56.1407 4.69158L56.0603 4.55211L55.9796 4.41456L55.8986 4.27881L55.8174 4.145L55.7359 4.01305L55.654 3.88298L55.5717 3.75485L55.4892 3.62872L55.4061 3.50451L55.398 3.49248L55.3228 3.38228L55.3142 3.36983L55.2389 3.26197L55.2298 3.24908L55.1546 3.1436L55.1451 3.1304L55.0698 3.0273L55.0598 3.0137L54.9845 2.91301L54.9739 2.89893L54.8986 2.80068L54.8874 2.78622L54.8122 2.69042L54.8003 2.67552L54.7251 2.58217L54.7125 2.56677L54.6373 2.47591L54.6241 2.46017L54.5488 2.37181L54.5348 2.3556L54.4596 2.26976L54.4448 2.2531L54.3695 2.16979L54.3538 2.15265L54.2786 2.07189L54.262 2.05439L54.1867 1.97619L54.1691 1.95816L54.0939 1.88254L54.0753 1.86419L54.0001 1.79116L53.9804 1.7724L53.9051 1.70198L53.8843 1.68283L53.809 1.61503L53.7869 1.59549L53.7117 1.53031C53.704 1.52362 53.6962 1.517 53.6883 1.51046L53.613 1.44793C53.6049 1.44116 53.5967 1.43448 53.5884 1.42788L53.5132 1.36801C53.5045 1.36113 53.4958 1.35434 53.487 1.34765L53.4117 1.29044C53.4026 1.28351 53.3934 1.27668 53.3842 1.26996L53.3089 1.21543C53.2993 1.20843 53.2895 1.20155 53.2797 1.19479L53.2045 1.14295C53.1943 1.13593 53.184 1.12904 53.1737 1.12228L53.0984 1.07314C53.0877 1.06612 53.0769 1.05924 53.0659 1.05251L52.9907 1.00607C52.9794 0.999107 52.968 0.992296 52.9566 0.985637L52.8813 0.941915C52.8695 0.935005 52.8575 0.928259 52.8454 0.921679L52.7702 0.88068C52.7577 0.873884 52.7451 0.867265 52.7324 0.860825L52.6572 0.822559C52.6441 0.815909 52.631 0.809451 52.6177 0.803187L52.5425 0.767659C52.5288 0.761196 52.515 0.754941 52.5011 0.748895L52.4259 0.716113C52.4116 0.709888 52.3972 0.703886 52.3827 0.698109L52.3075 0.668079C52.2926 0.662157 52.2777 0.656473 52.2627 0.651028L52.1875 0.623754C52.172 0.618157 52.1565 0.612814 52.1409 0.607727L52.0656 0.583215C52.0497 0.578015 52.0336 0.573084 52.0175 0.568423L51.9423 0.546677C51.9258 0.541911 51.9092 0.537429 51.8926 0.533232L51.8173 0.514259C51.8004 0.509983 51.7833 0.506005 51.7662 0.502325L51.691 0.486125C51.6736 0.482384 51.6562 0.478953 51.6387 0.475832L51.5634 0.462411C51.5457 0.45925 51.5279 0.456408 51.5101 0.453887L51.4349 0.443244C51.4169 0.440694 51.3988 0.438473 51.3807 0.436581L51.3054 0.42872C51.2872 0.426811 51.2689 0.425238 51.2505 0.424001L51.1753 0.418925C51.1569 0.417683 51.1385 0.416781 51.12 0.416219L51.0448 0.413927C51.0263 0.413363 51.0078 0.413142 50.9893 0.413263L50.914 0.413756C50.8955 0.413877 50.877 0.41434 50.8585 0.415145L50.7833 0.418424C50.7649 0.419225 50.7465 0.420366 50.7282 0.421845L50.6529 0.427906C50.6347 0.429377 50.6164 0.431184 50.5982 0.433323L50.523 0.442169C50.505 0.444286 50.487 0.44673 50.4691 0.4495L50.3938 0.461125C50.3761 0.463864 50.3584 0.46692 50.3408 0.470292L50.2656 0.484697C50.2482 0.488018 50.231 0.491646 50.2137 0.495577L50.1385 0.512759C50.1216 0.516627 50.1047 0.520789 50.0879 0.525243L50.0126 0.545197C49.9962 0.549566 49.9798 0.554215 49.9635 0.559142L49.8882 0.581866C49.8723 0.586686 49.8564 0.591772 49.8406 0.597122L49.7654 0.622612C49.75 0.627828 49.7347 0.633293 49.7194 0.639006L49.6442 0.667256C49.6294 0.672823 49.6146 0.678625 49.6 0.684659L49.5247 0.715663C49.5105 0.721547 49.4963 0.727651 49.4822 0.733972L49.407 0.767728C49.3933 0.773847 49.3798 0.780171 49.3663 0.786695L49.2911 0.823193C49.278 0.829529 49.265 0.836054 49.2522 0.842767L49.1769 0.882C49.1645 0.88849 49.1521 0.895154 49.1399 0.901991L49.0646 0.943953C49.0528 0.950567 49.041 0.957342 49.0293 0.964276L48.9541 1.00896C48.9428 1.01566 48.9316 1.02251 48.9205 1.02951L48.8453 1.07691C48.8346 1.08364 48.824 1.09051 48.8134 1.09752L48.7382 1.14762C48.728 1.15438 48.718 1.16127 48.708 1.16828L48.6327 1.22107C48.6231 1.22783 48.6135 1.23471 48.6041 1.24169L48.5288 1.29717C48.5197 1.30388 48.5107 1.31069 48.5018 1.3176L48.4265 1.37575C48.4179 1.38241 48.4094 1.38917 48.4009 1.39602L48.3256 1.45684C48.3175 1.46342 48.3094 1.47009 48.3014 1.47684L48.2262 1.54031C48.2185 1.5468 48.2109 1.55337 48.2033 1.56001L48.128 1.62612L48.1064 1.64554L48.0311 1.71427L48.0107 1.73327L47.9355 1.80462L47.9162 1.82325L47.8409 1.8972L47.8227 1.91547L47.7474 1.992L47.7302 2.00979L47.655 2.0889L47.6387 2.10628L47.5635 2.18794L47.5481 2.20492L47.4728 2.28913L47.4584 2.30558L47.3831 2.39231L47.3693 2.40844L47.2941 2.49769L47.2811 2.51331L47.2059 2.60505L47.1936 2.62018L47.1184 2.7144L47.1067 2.72921L47.0314 2.82589L47.0204 2.84021L46.9452 2.93933L46.9348 2.95318L46.8596 3.05472L46.8496 3.06826L46.7744 3.17221L46.765 3.1853L46.6898 3.29162L46.681 3.30425L46.6057 3.41294L46.5972 3.42531L46.522 3.53634L46.514 3.54827L46.4387 3.66159L46.3559 3.78875L46.2734 3.91795L46.1913 4.049L46.1096 4.1819L46.0281 4.31678L45.947 4.45345L45.8661 4.59203L45.7855 4.7324L45.7052 4.87462L45.6251 5.01868L45.5452 5.16447L45.5408 5.17263L45.4656 5.31207L45.4613 5.31998L45.3861 5.46144L45.3821 5.46906L45.3068 5.6125L45.303 5.6199L45.2277 5.7653L45.224 5.77248L45.1488 5.91981L45.1453 5.92673L45.0701 6.07597L45.0667 6.08269L44.9914 6.23381L44.9882 6.24033L44.913 6.39329L44.9099 6.39955L44.8347 6.55433L44.8317 6.56043L44.7565 6.71701L44.7537 6.72292L44.6784 6.88126L44.6758 6.88691L44.6005 7.04698L44.5979 7.05254L44.5227 7.21432L44.5202 7.21965L44.445 7.38309L44.4426 7.38819L44.3674 7.55328L44.3651 7.55832L44.2899 7.72502L44.2877 7.72983L44.2125 7.8981L44.2104 7.90272L44.1352 8.07254L44.1332 8.07708L44.0579 8.24842L44.056 8.25277L43.9808 8.42558L43.979 8.42976L43.902 8.60808L43.8267 8.78376L43.8251 8.7877L43.7498 8.96477L43.7482 8.96851L43.673 9.14694L43.5962 9.33031L43.5948 9.33381L43.5181 9.51824L43.4429 9.70051L43.3663 9.88722L43.2886 10.078L43.2122 10.2667L43.1358 10.4564L43.0606 10.6444L42.9843 10.8362L42.8309 11.2245L42.7557 11.4165L42.6027 11.8094L42.4515 12.2012L42.3749 12.4008L42.2239 12.7967L42.148 12.9963L42.145 13.0045L39.7404 19.4499L39.7373 19.4581L39.5159 20.0392L39.442 20.2317L39.3667 20.4271L39.2922 20.6197L39.1442 20.9999L39.069 21.1919L38.9956 21.3781L38.9204 21.5682L38.8461 21.7547L38.699 22.1213L38.6237 22.3071L38.551 22.4856L38.4771 22.6658L38.4019 22.8481L38.3295 23.0222L38.328 23.0257L38.2558 23.1983L38.2542 23.2019L38.1821 23.3729L38.1805 23.3767L38.1085 23.546L38.1069 23.5499L38.0351 23.7176L38.0333 23.7217L37.9616 23.8877L37.9598 23.8919L37.8883 24.0561L37.8864 24.0605L37.8151 24.2229L37.8131 24.2274L37.7419 24.3881L37.7398 24.3927L37.6688 24.5515L37.6666 24.5563L37.5958 24.7131L37.5936 24.7181L37.5229 24.8731L37.5206 24.8782L37.4502 25.0311L37.4477 25.0365L37.3775 25.1874L37.3749 25.1929L37.305 25.3417L37.3023 25.3474L37.2326 25.4941L37.2297 25.5L37.1603 25.6446L37.1573 25.6507L37.0881 25.793L37.085 25.7993L37.0161 25.9395L37.0129 25.946L36.9442 26.0838L36.9408 26.0905L36.8725 26.2261L36.869 26.233L36.8009 26.3662L36.7972 26.3734L36.7296 26.5042L36.7257 26.5116L36.6583 26.64L36.6543 26.6476L36.5873 26.7735L36.5831 26.7814L36.5165 26.9047L36.5121 26.9129L36.4459 27.0337L36.4413 27.0421L36.3756 27.1603L36.3707 27.169L36.3054 27.2845L36.3003 27.2935L36.2356 27.4064L36.2302 27.4156L36.1659 27.5258L36.1603 27.5353L36.0966 27.6427L36.0907 27.6526L36.0276 27.757L36.0214 27.7673L35.9589 27.869L35.9524 27.8794L35.8905 27.9782L35.8836 27.9891L35.8153 28.0961L35.7511 28.1947L35.6836 28.2963L35.6165 28.3952L35.55 28.4912L35.484 28.5845L35.4183 28.6753L35.3532 28.7631L35.2886 28.8481L35.2247 28.9301L35.1616 29.0092L35.0989 29.0856L35.0371 29.1589L34.976 29.2292L34.9156 29.2968L34.8564 29.3611L34.7978 29.4226L34.7402 29.4812L34.6839 29.5365L34.6285 29.5889L34.5743 29.6384L34.5213 29.685L34.4697 29.7285L34.4194 29.7691L34.3706 29.8068L34.3233 29.8416L34.2774 29.8738L34.2332 29.9032L34.1907 29.9299L34.15 29.9541L34.1109 29.9759L34.0737 29.9952L34.0383 30.0124L34.0047 30.0275L33.9728 30.0406L33.9427 30.0519L33.9143 30.0615L33.8875 30.0695L33.8621 30.0763L33.8382 30.0817L33.8154 30.0861L33.7937 30.0894L33.7727 30.0918L33.7525 30.0935L33.7326 30.0943L33.7129 30.0944L33.693 30.0938L33.6728 30.0924L33.6521 30.0903L33.6308 30.0872L33.6082 30.0832L33.5848 30.0781L33.5598 30.0718L33.5336 30.0642L33.5056 30.0551L33.476 30.0443L33.4448 30.0319L33.4117 30.0174L33.3769 30.0009L33.3402 29.9823L33.3017 29.9613L33.2615 29.9379L33.2196 29.912L33.176 29.8835L33.1307 29.8522L33.0837 29.8182L33.0354 29.7814L32.9856 29.7418L32.9343 29.6991L32.8819 29.6536L32.8279 29.605L32.773 29.5536L32.7169 29.499L32.6598 29.4416L32.6015 29.381L32.5425 29.3176L32.4824 29.251L32.4216 29.1817L32.3599 29.1092L32.2977 29.034L32.2345 28.9556L32.1708 28.8745L32.1066 28.7905L32.0416 28.7035L31.9763 28.614L31.9101 28.5212L31.8438 28.4262L31.7769 28.3281L31.7095 28.2272L31.6419 28.124L31.5773 28.0235L31.5703 28.0125L31.5087 27.9147L31.5021 27.9041L31.4398 27.8033L31.4334 27.793L31.3705 27.6894L31.3645 27.6794L31.301 27.5729L31.2953 27.5633L31.2312 27.454L31.2258 27.4447L31.1611 27.3327L31.156 27.3236L31.0909 27.209L31.0859 27.2001L31.0203 27.0828L31.0156 27.0743L30.9496 26.9543L30.9451 26.9461L30.8787 26.8235L30.8744 26.8156L30.8075 26.6905L30.8034 26.6828L30.7362 26.5551L30.7323 26.5477L30.6647 26.4177L30.6609 26.4104L30.593 26.278L30.5895 26.271L30.5212 26.1361L30.5178 26.1294L30.4492 25.9923L30.4459 25.9856L30.3771 25.8463L30.374 25.8399L30.3048 25.6982L30.3019 25.6921L30.2325 25.5482L30.2296 25.5422L30.1599 25.3962L30.1572 25.3905L30.0873 25.2423L30.0847 25.2367L30.0146 25.0865L30.0121 25.0811L29.9417 24.9288L29.9394 24.9236L29.8688 24.7693L29.8665 24.7643L29.7958 24.6081L29.7936 24.6032L29.7226 24.445L29.7205 24.4403L29.6494 24.2803L29.6474 24.2757L29.5761 24.1139L29.5742 24.1095L29.5027 23.9458L29.5009 23.9415L29.4292 23.7761L29.4275 23.772L29.3557 23.6049L29.354 23.6009L29.2821 23.432L29.2804 23.4282L29.2084 23.2578L29.2068 23.2541L29.1346 23.082L29.0594 22.9014L28.9869 22.7263L28.9117 22.5432L28.839 22.3651L28.7649 22.1826L28.6897 21.996L28.6155 21.8112L28.5424 21.6277L28.4681 21.4405L28.2442 20.8702L28.0954 20.4866L28.0209 20.2935L27.8724 19.9063L27.8718 19.9047L27.7257 19.5211L27.7225 19.5126L25.2428 12.8692L25.1642 12.6626L25.0883 12.464L25.0124 12.2659L24.9365 12.0686L24.8606 11.8719L24.7846 11.6759L24.7085 11.4807L24.6324 11.2863L24.5563 11.0927L24.4801 10.8999L24.4039 10.708L24.3276 10.5171L24.2513 10.3271L24.1749 10.138L24.0984 9.95004L24.0219 9.76309L23.9454 9.57722L23.8688 9.39245L23.7921 9.20885L23.7153 9.02641L23.6385 8.84517L23.5616 8.66517L23.4847 8.48647L23.4076 8.309L23.3305 8.1329L23.2533 7.95816L23.176 7.78476L23.0987 7.6128L23.0212 7.44229L22.9436 7.27319L22.866 7.10561L22.7882 6.93953L22.7103 6.77501L22.6323 6.61204L22.5541 6.45064L22.4759 6.29088L22.3975 6.13274L22.3189 5.97624L22.2402 5.82143L22.1613 5.66835L22.0823 5.51692L22.0031 5.36727L21.9237 5.2194L21.8441 5.07325L21.7643 4.92894L21.6842 4.78641L21.604 4.64573L21.5234 4.50688L21.4427 4.36989L21.3616 4.23478L21.2803 4.10156L21.1986 3.97023L21.1166 3.84083L21.0343 3.71336L20.9515 3.58784L20.9436 3.57603L20.8684 3.46426L20.8601 3.4521L20.7849 3.34266L20.7761 3.33006L20.7009 3.22298L20.6917 3.21004L20.6165 3.10534L20.6067 3.09197L20.5315 2.98966L20.5212 2.97587L20.446 2.87598L20.4352 2.86181L20.36 2.76435L20.3485 2.74972L20.2733 2.65472L20.2612 2.63968L20.186 2.54715L20.1732 2.53167L20.098 2.44163L20.0845 2.42568L20.0092 2.33815L19.995 2.32179L19.9197 2.23678L19.9046 2.21996L19.8294 2.13749L19.8134 2.12023L19.7381 2.0403L19.7212 2.02264L19.646 1.94529L19.6281 1.92718L19.5528 1.85241L19.5339 1.83388L19.4586 1.7617L19.4386 1.74281L19.3633 1.67324L19.3421 1.65397L19.2668 1.58703L19.2443 1.5674L19.1691 1.50309C19.1612 1.49637 19.1533 1.48973 19.1453 1.48317L19.0701 1.42151C19.0617 1.4147 19.0534 1.40797 19.0449 1.40134L18.9697 1.34233C18.9608 1.33543 18.952 1.32862 18.943 1.32192L18.8678 1.26559C18.8585 1.25863 18.8491 1.25178 18.8397 1.24504L18.7644 1.19139C18.7546 1.18439 18.7447 1.17751 18.7347 1.17075L18.6595 1.11979C18.6491 1.11277 18.6387 1.10589 18.6281 1.09913L18.5529 1.05088C18.542 1.04388 18.531 1.03702 18.5199 1.0303L18.4446 0.984754C18.4332 0.977797 18.4216 0.970995 18.4099 0.96435L18.3347 0.921519C18.3226 0.914643 18.3104 0.907935 18.2981 0.901397L18.2229 0.861294C18.2102 0.854543 18.1975 0.847973 18.1846 0.841588L18.1094 0.804217C18.0961 0.797623 18.0827 0.791225 18.0693 0.785027L17.994 0.750397C17.9801 0.74401 17.9662 0.737835 17.9521 0.731875L17.8769 0.699994C17.8624 0.693866 17.8478 0.687965 17.8332 0.682294L17.7579 0.653165C17.7429 0.647336 17.7277 0.641751 17.7125 0.636411L17.6373 0.610042C17.6217 0.604572 17.606 0.59936 17.5902 0.59441L17.5149 0.570804C17.4988 0.565741 17.4826 0.560951 17.4663 0.556436L17.391 0.535598C17.3744 0.530986 17.3577 0.526663 17.3409 0.52263L17.2656 0.504565C17.2485 0.500463 17.2314 0.496661 17.2142 0.493162L17.1389 0.477872C17.1214 0.474315 17.1039 0.471072 17.0863 0.468142L17.011 0.455631C16.9932 0.452665 16.9753 0.450021 16.9574 0.447702L16.8821 0.437971C16.864 0.435627 16.8458 0.433614 16.8276 0.431934L16.7524 0.424986C16.7341 0.423295 16.7157 0.42194 16.6974 0.420923L16.6221 0.416759C16.6037 0.415738 16.5852 0.415058 16.5668 0.414719L16.4915 0.413338C16.473 0.412999 16.4545 0.413002 16.436 0.413347L16.3607 0.414753C16.3423 0.415097 16.3238 0.415784 16.3054 0.41681L16.2301 0.420999C16.2118 0.422022 16.1934 0.423383 16.1751 0.425082L16.0998 0.432055C16.0817 0.43374 16.0635 0.435757 16.0454 0.438104L15.9702 0.447859C15.9522 0.450184 15.9343 0.452833 15.9165 0.455805L15.8413 0.468341C15.8237 0.471276 15.8061 0.474525 15.7886 0.478087L15.7134 0.493402C15.6961 0.496906 15.679 0.500713 15.6619 0.50482L15.5867 0.52291C15.5699 0.526946 15.5532 0.531273 15.5365 0.535886L15.4613 0.556749C15.445 0.561269 15.4288 0.566063 15.4126 0.571132L15.3374 0.594762C15.3216 0.599717 15.3059 0.604934 15.2903 0.610408L15.2151 0.636802C15.1998 0.642143 15.1847 0.647728 15.1697 0.653557L15.0944 0.68271C15.0798 0.688385 15.0652 0.69429 15.0508 0.700423L14.9755 0.732329C14.9614 0.738293 14.9475 0.744472 14.9336 0.750863L14.8584 0.785518C14.8449 0.791711 14.8316 0.798104 14.8183 0.804693L14.7431 0.842087C14.7302 0.848478 14.7174 0.855054 14.7048 0.861813L14.6295 0.90194C14.6173 0.908476 14.6051 0.915183 14.593 0.922057L14.5178 0.964911C14.5061 0.97156 14.4945 0.978366 14.483 0.985326L14.4078 1.0309C14.3967 1.03761 14.3857 1.04447 14.3748 1.05147L14.2996 1.09976C14.289 1.10651 14.2786 1.11339 14.2683 1.1204L14.193 1.17139C14.183 1.17815 14.1731 1.18503 14.1633 1.19203L14.0881 1.2457C14.0786 1.25245 14.0693 1.2593 14.06 1.26627L13.9847 1.32262C13.9758 1.32932 13.9669 1.33611 13.9581 1.34301L13.8829 1.40203C13.8744 1.40867 13.866 1.4154 13.8577 1.42222L13.7825 1.4839C13.7745 1.49046 13.7665 1.49711 13.7587 1.50383L13.6834 1.56816L13.661 1.58776L13.5857 1.65472L13.5645 1.67402L13.4892 1.74361L13.4692 1.7625L13.3939 1.8347L13.375 1.8532L13.2998 1.928L13.2818 1.94611L13.2066 2.02349L13.1897 2.04117L13.1145 2.12112L13.0985 2.13833L13.0233 2.22083L13.0081 2.23766L12.9329 2.3227L12.9187 2.33905L12.8434 2.42661L12.8299 2.44254L12.7547 2.53261L12.7419 2.54809L12.6667 2.64064L12.6546 2.65567L12.5794 2.75069L12.5679 2.76533L12.4927 2.8628L12.4819 2.87699L12.4066 2.9769L12.3964 2.99066L12.3212 3.09298L12.3114 3.10635L12.2362 3.21108L12.227 3.22404L12.1518 3.33115L12.143 3.34369L12.0678 3.45315L12.0595 3.46535L11.9843 3.57714L11.9764 3.58894L11.9011 3.70302L11.8184 3.83086L11.7361 3.96064L11.6541 4.0923L11.5724 4.22588L11.4911 4.36133L11.41 4.49862L11.3293 4.63779L11.2487 4.77879L11.1685 4.92159L11.0884 5.06622L11.0086 5.2126L10.929 5.36077L10.8496 5.5107L10.7704 5.66234L10.6914 5.8157L10.6125 5.97076L10.5338 6.12748L10.4553 6.28584L10.3769 6.44584L10.2986 6.60744L10.2205 6.77062L10.1424 6.93536L10.0645 7.10162L9.98676 7.26941L9.90909 7.43866L9.83152 7.60938L9.75405 7.78152L9.67668 7.95507L9.59939 8.13L9.5222 8.30626L9.44508 8.48387L9.36806 8.66275L9.36634 8.66676L9.2911 8.8429L9.28946 8.84677L9.21422 9.02428L9.21264 9.02801L9.1374 9.20687L9.1359 9.21045L9.06066 9.39062L9.05922 9.39408L8.98398 9.57551L8.9826 9.57885L8.90736 9.76153L8.90605 9.76473L8.83081 9.94861L8.82955 9.95169L8.75431 10.1367L8.75311 10.1397L8.67787 10.3259L8.60149 10.516L8.52411 10.7097L8.21947 11.4824L7.68855 12.862L5.20547 19.5144L5.20228 19.5229L4.60853 21.0644L4.53509 21.2514L4.45985 21.4421L4.38558 21.6294L4.31245 21.8128L4.23721 22.0004L4.16428 22.1813L4.08904 22.3667L4.01634 22.5448L4.01503 22.5479L3.96515 22.6693L0.253906 32.9388Z" fill="#D9D9D9"/>
</svg>
