<svg width="116" height="34" viewBox="0 0 116 34" fill="none" xmlns="http://www.w3.org/2000/svg">
<path fill-rule="evenodd" clip-rule="evenodd" d="M8.14077 31.4027C10.6749 32.9892 13.671 33.9063 16.8813 33.9063C25.9911 33.9063 33.3761 26.5213 33.3761 17.4115C33.3761 9.07399 27.1903 2.18129 19.1577 1.07246L8.14077 31.4027ZM15.0463 1.01758C6.80003 1.9303 0.386475 8.9219 0.386475 17.4115C0.386475 21.8583 2.14612 25.8941 5.00708 28.8606L15.0463 1.01758Z" fill="#D9D9D9"/>
<path fill-rule="evenodd" clip-rule="evenodd" d="M66.6811 31.3935C64.1438 32.9856 61.1425 33.9062 57.9261 33.9062C48.8163 33.9062 41.4313 26.5212 41.4313 17.4114C41.4313 9.06804 47.6258 2.17152 55.6666 1.07003L66.6811 31.3935ZM59.7796 1.01953C68.0169 1.94065 74.4209 8.92814 74.4209 17.4114C74.4209 21.8515 72.6665 25.8818 69.8132 28.8471L59.7796 1.01953Z" fill="#D9D9D9"/>
<path fill-rule="evenodd" clip-rule="evenodd" d="M82.4902 19.4318L115.236 19.4994C114.226 27.6416 107.283 33.9437 98.867 33.9437C90.4283 33.9437 83.4696 27.6067 82.4902 19.4318ZM82.4792 15.5598L115.269 15.6889C114.391 7.40657 107.382 0.954102 98.867 0.954102C90.3961 0.954102 83.4165 7.33962 82.4792 15.5598Z" fill="#D9D9D9"/>
</svg>
